<?xml version="1.0" standalone="no"?>
<!DOCTYPE svg PUBLIC "-//W3C//DTD SVG 20010904//EN"
 "http://www.w3.org/TR/2001/REC-SVG-20010904/DTD/svg10.dtd">
<svg version="1.0" xmlns="http://www.w3.org/2000/svg"
 width="614.000000pt" height="614.000000pt" viewBox="0 0 614.000000 614.000000"
 preserveAspectRatio="xMidYMid meet">
<metadata>
Created by potrace 1.11, written by Peter Selinger 2001-2013
</metadata>
<g transform="translate(0.000000,614.000000) scale(0.100000,-0.100000)"
fill="#000000" stroke="none">
<path d="M5461 6043 c-9 -7 -12 -13 -7 -13 5 0 1 -9 -10 -21 -10 -12 -18 -24
-17 -28 4 -10 -20 -71 -28 -71 -4 0 -10 -16 -13 -35 -4 -19 -11 -35 -16 -35
-6 0 -10 -3 -9 -7 2 -16 -14 -53 -23 -53 -5 0 -7 -4 -4 -9 3 -5 -8 -36 -24
-69 -17 -34 -30 -66 -30 -71 0 -6 -4 -11 -8 -11 -5 0 -9 -6 -9 -12 0 -7 -15
-44 -32 -83 -18 -38 -39 -83 -46 -100 -7 -16 -27 -61 -44 -98 -17 -38 -31 -73
-31 -78 0 -5 -4 -9 -8 -9 -5 0 -9 -6 -9 -12 0 -7 -14 -44 -31 -81 -18 -38 -32
-73 -32 -78 0 -5 -4 -9 -8 -9 -5 0 -9 -6 -9 -12 0 -7 -13 -40 -28 -73 -15 -33
-29 -67 -31 -75 -2 -8 -8 -16 -14 -18 -5 -2 -8 -8 -4 -13 3 -5 1 -9 -5 -9 -6
0 -8 -6 -5 -14 3 -7 -3 -22 -13 -31 -10 -10 -16 -19 -14 -19 9 -2 -11 -46 -20
-46 -6 0 -8 -4 -5 -9 3 -5 -5 -31 -18 -58 -46 -93 -86 -183 -92 -208 -3 -14
-9 -25 -13 -25 -4 0 -8 -6 -8 -12 0 -17 -45 -111 -56 -119 -5 -3 -9 -10 -8
-15 1 -20 -12 -54 -20 -54 -5 0 -8 -3 -7 -8 3 -8 -32 -93 -42 -102 -3 -3 -6
-12 -8 -20 -2 -8 -15 -40 -29 -70 -15 -30 -28 -61 -29 -69 -1 -8 -8 -17 -14
-21 -7 -4 -11 -10 -10 -14 3 -11 -22 -70 -39 -90 -9 -10 -15 -20 -13 -22 1 -2
2 -5 1 -6 0 -2 -2 -12 -4 -22 -2 -10 -7 -22 -12 -25 -4 -3 -10 -15 -11 -26 -2
-11 -8 -21 -13 -23 -5 -2 -9 -9 -9 -15 0 -7 -10 -32 -22 -57 -11 -25 -22 -49
-23 -55 -2 -5 -20 -46 -41 -90 -21 -44 -37 -83 -36 -87 1 -5 -1 -8 -6 -8 -19
0 1 -76 53 -205 31 -77 57 -144 59 -150 1 -5 8 -20 14 -33 7 -12 10 -27 7 -32
-3 -6 -2 -10 3 -10 7 0 36 -69 37 -90 1 -3 7 -16 15 -30 7 -14 13 -27 13 -30
-1 -9 17 -54 31 -80 8 -14 14 -28 15 -33 0 -4 7 -20 15 -35 7 -15 28 -63 46
-107 44 -111 46 -116 63 -155 32 -72 40 -95 38 -104 -1 -5 2 -12 6 -15 5 -3
17 -28 27 -56 10 -27 26 -68 36 -90 10 -22 25 -56 33 -75 9 -19 13 -38 11 -42
-3 -4 0 -8 7 -8 7 0 9 -3 6 -7 -4 -3 -3 -11 2 -17 5 -6 21 -42 36 -81 39 -99
124 -304 140 -340 7 -16 11 -33 9 -37 -3 -4 0 -8 5 -8 6 0 10 -3 9 -7 -1 -5 6
-23 15 -40 10 -18 18 -35 18 -38 0 -2 3 -14 6 -24 3 -11 4 -23 3 -27 -1 -4 3
-10 10 -14 6 -4 13 -13 14 -21 2 -8 8 -25 13 -39 53 -128 65 -156 67 -165 1
-5 9 -26 18 -45 36 -81 51 -122 51 -135 0 -8 3 -13 5 -10 6 6 82 -181 85 -207
0 -10 4 -18 7 -18 7 0 32 -66 30 -76 -1 -4 2 -10 7 -13 4 -3 14 -24 22 -46 7
-22 22 -57 32 -79 10 -21 16 -43 13 -47 -3 -5 -1 -9 4 -9 12 0 33 -56 25 -64
-4 -3 -2 -6 4 -6 9 0 18 -21 28 -60 0 -3 5 -14 11 -25 16 -30 99 -239 97 -245
-1 -4 393 -5 497 -1 19 1 26 7 26 21 0 11 -4 20 -9 20 -4 0 -6 4 -3 9 4 5 2
11 -3 13 -5 1 -11 12 -13 23 -1 11 -6 22 -10 25 -3 3 -8 14 -10 25 -1 11 -5
22 -8 25 -5 5 -114 259 -116 270 -1 7 -20 52 -43 103 -11 24 -30 68 -41 98
-12 30 -27 65 -33 79 -6 14 -11 27 -12 30 -3 11 -28 67 -46 103 -11 22 -16 43
-13 48 3 5 0 9 -5 9 -6 0 -11 4 -11 9 0 5 -8 26 -17 47 -26 61 -35 85 -33 98
1 5 -3 12 -10 16 -6 4 -12 13 -14 21 -1 8 -9 30 -18 49 -9 19 -29 64 -43 100
-15 36 -31 69 -36 75 -5 5 -9 15 -9 23 0 7 -8 32 -19 55 -48 109 -59 137 -53
137 4 0 2 4 -4 8 -5 4 -25 45 -43 92 -19 47 -38 90 -43 97 -5 7 -7 17 -3 23 3
5 2 10 -4 10 -5 0 -13 10 -16 23 -4 12 -16 42 -27 67 -12 25 -21 51 -21 58 0
6 -4 12 -9 12 -4 0 -7 3 -6 8 1 4 -6 25 -16 47 -10 22 -27 63 -38 90 -11 28
-25 61 -31 75 -6 14 -11 27 -12 30 0 3 -11 27 -23 54 -13 28 -25 60 -28 73 -4
13 -10 26 -15 29 -5 3 -7 10 -4 15 4 5 1 9 -4 9 -6 0 -11 6 -11 13 0 7 -9 31
-19 53 -10 21 -21 48 -23 59 -1 11 -6 22 -9 25 -13 10 -49 103 -43 111 3 5 1
9 -4 9 -9 0 -62 126 -62 148 0 6 -4 12 -10 12 -5 0 -10 8 -10 18 0 10 -4 22
-8 28 -5 5 -17 29 -26 54 -19 48 -31 76 -66 155 -12 28 -24 55 -25 60 -1 6 -9
26 -17 45 -19 45 -31 74 -32 80 -1 3 -7 15 -14 28 -8 14 -9 22 -2 22 5 0 9 3
8 8 -4 10 45 122 53 122 4 0 10 16 13 35 4 19 11 35 16 35 6 0 10 3 9 8 -2 15
14 52 23 52 5 0 7 4 4 9 -3 5 8 36 24 69 17 34 30 66 30 71 0 6 4 11 8 11 5 0
9 6 9 13 0 6 14 41 30 77 17 36 41 88 54 115 12 28 24 56 25 64 2 8 6 17 11
20 4 3 9 11 10 16 1 6 15 39 31 75 67 147 82 181 82 190 0 6 5 10 11 10 5 0 8
4 4 9 -3 5 -1 12 5 16 5 3 10 15 10 26 0 10 5 19 10 19 6 0 10 9 10 20 0 11 4
20 8 20 5 0 9 6 9 13 0 6 14 41 30 77 39 84 47 103 45 113 -1 4 2 7 6 7 4 0
16 23 27 50 11 28 22 50 26 50 3 0 6 6 6 13 0 6 14 43 31 80 18 38 32 73 32
78 0 5 5 9 12 9 6 0 8 3 5 7 -4 3 1 15 10 26 10 11 13 17 7 14 -6 -4 1 19 16
51 31 63 83 174 85 182 0 3 10 26 22 52 12 25 24 56 28 67 3 12 10 21 14 21 4
0 8 6 8 13 0 7 15 44 33 83 19 38 34 71 35 74 5 25 18 50 25 50 5 0 7 7 4 15
-4 8 -1 15 5 15 6 0 10 3 9 8 -2 11 42 115 93 215 10 22 19 45 19 53 0 8 5 14
10 14 6 0 9 3 8 8 -1 8 6 29 28 79 8 17 14 33 14 35 0 2 -84 5 -187 7 -104 1
-217 4 -252 4 -37 1 -71 -3 -80 -10z"/>
<path d="M5 3150 l0 -2785 230 0 230 0 0 2653 c0 1458 2 2652 6 2652 3 0 6 -6
7 -12 3 -23 9 -53 15 -83 4 -16 10 -40 12 -52 3 -13 7 -33 11 -45 14 -58 17
-74 18 -90 0 -10 4 -18 8 -18 4 0 7 -3 6 -7 -1 -5 2 -28 7 -53 5 -25 10 -49
11 -55 1 -5 3 -12 4 -15 3 -8 11 -44 14 -65 2 -11 9 -38 14 -60 6 -22 13 -51
16 -65 3 -14 11 -47 17 -75 6 -27 12 -57 13 -65 1 -9 5 -20 8 -25 3 -6 8 -26
12 -45 3 -19 9 -46 12 -60 3 -14 7 -34 9 -45 2 -11 4 -20 5 -20 3 0 11 -39 13
-62 1 -13 4 -23 7 -23 5 0 8 -22 13 -72 1 -10 4 -18 7 -18 3 0 6 -8 7 -17 2
-22 9 -54 23 -113 7 -25 13 -54 14 -65 2 -11 6 -27 9 -35 4 -8 8 -28 11 -45 2
-16 5 -30 6 -30 2 0 4 -9 6 -20 4 -26 12 -62 19 -86 4 -10 8 -31 10 -47 2 -15
4 -27 5 -27 2 0 10 -34 14 -55 3 -22 36 -160 47 -200 9 -36 17 -76 24 -121 2
-14 9 -38 14 -53 6 -15 10 -30 10 -34 -1 -4 0 -9 1 -12 3 -8 11 -44 14 -65 2
-11 9 -38 14 -60 6 -22 13 -51 16 -65 3 -14 12 -56 21 -95 9 -38 18 -78 20
-88 2 -10 6 -26 9 -35 5 -17 11 -46 23 -107 7 -40 9 -47 16 -65 6 -16 24 -98
31 -142 3 -15 7 -31 9 -35 3 -5 8 -24 11 -43 3 -19 10 -50 15 -69 6 -19 8 -37
6 -42 -3 -4 0 -11 6 -14 5 -4 8 -13 5 -21 -3 -7 -1 -16 4 -19 5 -3 9 -13 8
-23 0 -9 3 -27 6 -40 3 -12 8 -30 10 -41 2 -10 9 -36 15 -56 6 -21 8 -42 5
-46 -2 -4 1 -11 7 -14 5 -4 8 -13 5 -21 -3 -7 -1 -16 4 -19 5 -3 9 -13 8 -23
0 -17 2 -27 20 -97 6 -22 13 -53 16 -70 3 -16 14 -68 26 -115 12 -47 22 -94
24 -105 1 -12 6 -26 10 -33 4 -7 5 -16 1 -21 -3 -5 -1 -12 4 -16 5 -3 10 -13
9 -23 0 -9 3 -28 7 -42 6 -24 12 -52 20 -95 2 -11 4 -20 5 -20 1 0 4 -9 13
-50 3 -11 12 -50 21 -86 15 -67 21 -94 31 -146 3 -16 9 -37 12 -48 8 -22 9
-27 17 -70 3 -16 8 -41 12 -55 3 -14 7 -32 9 -40 1 -8 5 -22 7 -30 5 -15 43
-180 53 -230 2 -14 9 -43 14 -65 12 -48 22 -93 26 -120 2 -11 4 -20 5 -20 1 0
3 -7 5 -15 2 -8 10 -45 19 -81 8 -37 17 -78 20 -90 3 -13 8 -35 11 -49 7 -27
11 -47 20 -100 4 -19 11 -39 16 -44 9 -10 468 -15 467 -6 -1 3 1 12 5 20 3 8
9 33 13 55 4 22 9 47 11 55 2 8 5 24 7 35 2 11 4 20 6 20 1 0 3 9 5 20 1 11 5
31 8 45 11 47 18 85 20 103 1 9 5 17 10 17 4 0 6 4 3 8 -3 5 -1 24 4 43 5 19
11 45 14 59 3 14 8 36 11 50 3 14 8 36 11 50 2 14 7 31 10 39 5 16 17 80 17
99 0 6 4 12 9 12 5 0 7 4 4 8 -2 4 5 46 16 92 11 47 22 96 25 110 9 45 11 55
13 55 1 0 3 9 5 20 10 56 25 127 31 147 7 22 15 59 18 83 2 11 4 20 6 20 1 0
3 9 5 20 2 19 8 44 20 95 3 14 8 34 10 45 8 44 16 81 21 97 7 22 15 59 18 83
2 11 4 20 6 20 1 0 3 9 5 20 1 11 5 32 9 48 12 52 17 82 19 100 1 9 4 17 7 17
3 0 6 8 7 18 1 27 10 76 17 92 5 14 10 38 23 105 3 17 9 37 14 46 4 9 6 18 4
21 -3 2 0 20 5 39 6 19 13 50 16 69 3 19 8 38 10 41 2 3 6 19 8 35 3 16 8 40
11 54 3 14 8 36 11 49 3 12 12 53 20 90 9 36 18 77 20 91 3 14 7 33 10 42 6
21 16 67 18 88 1 9 5 21 10 28 4 6 5 12 2 12 -2 0 0 15 5 33 5 17 12 48 15 67
3 19 10 42 15 51 4 9 6 18 4 21 -3 2 0 20 5 39 6 19 12 45 15 59 3 14 7 36 10
50 3 14 8 36 11 49 3 13 12 51 20 85 8 34 17 75 20 91 3 17 7 39 9 50 2 11 8
35 14 54 6 19 9 37 6 39 -3 3 0 11 6 19 6 7 9 13 6 13 -3 0 -1 16 5 36 10 39
17 67 23 99 2 11 6 30 9 43 3 12 8 32 11 45 2 12 8 36 12 52 3 17 7 37 9 45 1
8 5 26 9 40 3 14 8 36 11 50 3 14 9 41 14 60 5 19 11 46 14 60 3 14 8 36 11
50 3 14 8 39 11 55 7 38 12 59 14 65 1 3 3 10 5 15 1 6 3 12 4 15 1 3 4 16 6
30 2 14 10 53 18 87 8 34 12 64 9 67 -3 3 0 6 7 6 7 0 10 4 7 8 -3 5 -1 24 4
43 5 19 12 48 15 64 8 39 13 60 15 60 1 0 3 9 4 20 2 11 6 34 10 50 3 17 9 40
11 53 3 12 7 31 10 42 6 26 13 56 22 100 9 47 10 50 13 53 1 1 3 11 5 22 1 11
8 43 15 70 14 61 21 95 23 118 1 9 4 17 7 17 3 0 6 8 6 18 1 9 4 29 8 45 3 15
8 39 11 55 8 39 25 102 28 102 2 0 3 -1215 2 -2701 0 -1485 2 -2704 5 -2707 6
-8 559 -10 561 -2 1 3 2 1283 3 2845 l1 2840 -505 -1 c-278 -1 -508 -2 -511
-3 -3 -1 -6 -16 -6 -33 0 -18 -3 -43 -7 -55 -7 -26 -13 -51 -23 -103 -9 -47
-10 -50 -13 -52 -1 -2 -3 -12 -5 -23 -5 -29 -15 -77 -20 -95 -2 -8 -7 -30 -10
-49 -3 -19 -8 -38 -11 -43 -3 -5 -7 -21 -9 -36 -4 -27 -10 -52 -21 -94 -3 -13
-6 -33 -7 -45 -1 -13 -5 -23 -10 -23 -4 0 -6 -3 -3 -8 2 -4 -2 -34 -10 -67
-15 -61 -18 -74 -29 -135 -4 -19 -11 -43 -17 -53 -5 -10 -8 -21 -5 -23 3 -3 1
-22 -4 -42 -6 -20 -12 -48 -15 -62 -3 -14 -10 -43 -16 -65 -5 -22 -12 -49 -13
-60 -2 -11 -6 -31 -9 -45 -3 -14 -11 -50 -17 -80 -6 -30 -14 -62 -16 -70 -3
-8 -7 -24 -9 -35 -1 -11 -10 -49 -19 -85 -9 -36 -18 -78 -21 -95 -6 -40 -12
-70 -14 -70 -3 0 -12 -41 -13 -62 0 -13 -5 -23 -10 -23 -4 0 -6 -4 -3 -8 3 -5
-3 -41 -14 -80 -10 -40 -19 -75 -19 -77 -1 -3 -1 -6 -2 -7 0 -2 -2 -12 -4 -23
-2 -19 -5 -33 -20 -95 -3 -14 -10 -45 -15 -70 -5 -25 -16 -76 -25 -115 -9 -38
-19 -81 -21 -94 -3 -12 -12 -53 -20 -90 -9 -36 -18 -77 -20 -90 -3 -13 -12
-51 -20 -85 -8 -34 -17 -74 -19 -90 -2 -15 -7 -36 -10 -45 -4 -14 -47 -204
-59 -266 -3 -11 -7 -31 -10 -45 -3 -14 -8 -35 -11 -47 -3 -13 -7 -31 -9 -40
-3 -10 -12 -52 -21 -93 -9 -41 -19 -84 -21 -95 -3 -11 -7 -29 -9 -40 -2 -11
-6 -30 -9 -42 -3 -13 -8 -33 -11 -45 -2 -13 -8 -36 -12 -53 -3 -16 -7 -37 -9
-45 -1 -8 -5 -25 -8 -37 -7 -27 -13 -55 -23 -103 -9 -42 -10 -48 -13 -57 -1
-5 -3 -12 -5 -18 -1 -5 -3 -12 -4 -15 -1 -3 -4 -16 -6 -30 -3 -21 -13 -67 -31
-142 -6 -27 -13 -60 -21 -98 -9 -47 -10 -50 -13 -52 -1 -2 -3 -12 -5 -23 -1
-11 -10 -51 -19 -90 -9 -38 -18 -79 -20 -90 -2 -11 -4 -20 -5 -20 -2 0 -12
-51 -13 -72 -2 -15 -11 -8 -14 10 -1 7 -9 42 -18 78 -8 37 -18 79 -21 93 -3
14 -8 38 -11 54 -4 15 -7 35 -8 45 0 9 -3 17 -7 17 -4 0 -6 8 -4 18 1 9 0 22
-4 27 -7 12 -12 32 -16 65 -2 14 -4 25 -5 25 -2 0 -10 33 -15 60 -1 11 -10 47
-18 80 -9 33 -19 74 -22 90 -3 17 -7 35 -9 40 -1 6 -10 46 -20 90 -9 44 -21
96 -26 115 -20 80 -24 96 -23 113 0 9 -3 17 -6 17 -4 0 -8 10 -9 23 -3 25 -10
62 -12 62 -1 0 -3 9 -5 20 -11 57 -16 76 -34 150 -10 44 -22 96 -25 116 -3 20
-10 49 -16 65 -6 16 -11 30 -10 32 1 1 -1 15 -4 30 -4 15 -9 38 -12 52 -6 30
-12 57 -19 88 -3 12 -7 32 -10 43 -2 12 -9 36 -15 54 -6 18 -10 37 -9 41 1 5
0 11 -1 14 -3 8 -11 44 -15 65 -2 11 -4 20 -5 20 -2 0 -4 9 -5 20 -1 11 -8 40
-15 64 -6 25 -13 56 -15 70 -2 14 -4 26 -5 26 -2 0 -7 22 -15 60 -3 17 -10 46
-15 65 -10 38 -20 84 -25 115 -2 11 -4 20 -5 20 -1 0 -3 7 -5 15 -2 8 -7 26
-10 40 -3 14 -7 34 -9 45 -2 11 -6 29 -9 40 -3 11 -8 31 -11 45 -2 14 -11 53
-19 87 -8 34 -12 64 -9 67 3 3 0 6 -6 6 -6 0 -11 8 -11 18 1 17 -8 77 -11 77
-2 0 -10 34 -14 60 -2 11 -9 38 -14 60 -6 22 -14 54 -17 70 -8 39 -13 60 -15
60 -2 0 -3 8 -14 70 -2 17 -5 30 -6 30 -2 0 -9 27 -15 60 -8 38 -13 60 -15 60
-1 0 -3 7 -5 15 -6 32 -16 86 -20 111 -2 14 -9 38 -14 53 -6 15 -10 30 -10 34
1 4 0 9 -1 12 -3 10 -18 72 -25 110 -3 14 -9 40 -15 59 -5 19 -7 37 -5 42 3 4
1 10 -4 13 -5 3 -12 27 -16 53 -10 57 -10 57 -23 108 -12 42 -21 86 -27 120
-2 11 -4 21 -5 23 -2 1 -3 5 -4 10 -3 10 -28 124 -31 142 -2 8 -4 15 -5 15 -1
0 -4 10 -6 23 -2 12 -6 32 -8 45 -2 12 -5 22 -6 22 -2 0 -8 33 -12 63 -1 6 -5
12 -10 12 -5 0 -7 3 -5 8 3 4 -203 7 -456 7 l-462 0 0 -2785z"/>
</g>
</svg>
